<svg xmlns:xlink="http://www.w3.org/1999/xlink" viewBox="0 0 200 200" width="16" height="16" xmlns="http://www.w3.org/2000/svg" aria-label="Meridian City logo mark"><circle cx="100" cy="100" r="96" fill="#F97316"></circle><circle cx="100" cy="100" r="96" fill="none" stroke="#FB923C" stroke-width="3px"></circle><path d="M 48 138 A 52 52 0 0 1 152 138 Z" fill="#1E3A5F"></path><path d="M 44 138 A 56 56 0 0 1 156 138" fill="none" stroke="#3B82F6" stroke-width="4px" stroke-linecap="round"></path><line x1="156" y1="117" x2="172" y2="110" stroke="#1E3A5F" stroke-width="4.5px" stroke-linecap="round"></line><line x1="142" y1="96" x2="158" y2="80" stroke="#1E3A5F" stroke-width="4.5px" stroke-linecap="round"></line><line x1="121" y1="82" x2="128" y2="61" stroke="#1E3A5F" stroke-width="4.5px" stroke-linecap="round"></line><line x1="100" y1="78" x2="100" y2="56" stroke="#1E3A5F" stroke-width="4.5px" stroke-linecap="round"></line><line x1="79" y1="82" x2="72" y2="61" stroke="#1E3A5F" stroke-width="4.5px" stroke-linecap="round"></line><line x1="58" y1="96" x2="42" y2="80" stroke="#1E3A5F" stroke-width="4.5px" stroke-linecap="round"></line><line x1="44" y1="117" x2="28" y2="110" stroke="#1E3A5F" stroke-width="4.5px" stroke-linecap="round"></line><rect x="40" y="112" width="30" height="26" rx="2" fill="#FFFFFF"></rect><rect x="46" y="118" width="6" height="5" rx="1" fill="#F97316"></rect><rect x="57" y="118" width="6" height="5" rx="1" fill="#F97316"></rect><rect x="85" y="88" width="30" height="50" rx="2" fill="#FFFFFF"></rect><rect x="99" y="78" width="2" height="12" rx="1" fill="#FFFFFF"></rect><circle cx="100" cy="76" r="4" fill="#F97316"></circle><rect x="91" y="95" width="6" height="5" rx="1" fill="#F97316"></rect><rect x="103" y="95" width="6" height="5" rx="1" fill="#F97316"></rect><rect x="91" y="107" width="6" height="5" rx="1" fill="#F97316"></rect><rect x="103" y="107" width="6" height="5" rx="1" fill="#F97316"></rect><rect x="130" y="112" width="30" height="26" rx="2" fill="#FFFFFF"></rect><rect x="136" y="118" width="6" height="5" rx="1" fill="#F97316"></rect><rect x="147" y="118" width="6" height="5" rx="1" fill="#F97316"></rect><rect x="28" y="138" width="144" height="4" rx="2" fill="#FFFFFF" opacity="0.4"></rect></svg>